<?xml version="1.0" encoding="utf-8"?>
<!-- Generator: Adobe Illustrator 25.4.1, SVG Export Plug-In . SVG Version: 6.00 Build 0)  -->
<svg version="1.1" id="Layer_1" xmlns="http://www.w3.org/2000/svg" xmlns:xlink="http://www.w3.org/1999/xlink" x="0px" y="0px"
	 viewBox="0 0 2500 1051" style="enable-background:new 0 0 2500 1051;" xml:space="preserve">
<style type="text/css">
	.st0{fill:#FFFFFF;}
</style>
<path class="st0" d="M1711.8,263.1C1616.8,100.8,1440.8,0,1251.4,0S886,100.8,790.9,263.1H0l6.9,9.8
	c2.4,3.4,249.8,347.3,639.2,599.9l1.6,1h206C955,986.4,1099.7,1051,1251.4,1051s296.4-64.6,397.7-177.3h203.2l1.6-1
	c389.5-252.6,636.7-596.5,639.2-599.9l6.9-9.8L1711.8,263.1L1711.8,263.1z"/>
<path d="M2412.4,355.1h-664.6c10.3,29.4,18,59.9,22.9,91.4h17.5c-4.5-23.5-10.6-46.6-18.4-69.2c0,0,561.4-13.2,641.3-20.6
	c-48.6,57.9-99.5,113.8-152.8,167.4h-481.1l0.1,1.4c0,30.8-3.3,60.8-8.5,90h25.1c3.1-22.2,5.3-44.8,5.3-67.8l0-1.4
	c0,0,387.5-12.6,457.2-20.2c-58.9,59.4-120.5,116.1-184.7,169.8h-323.9c-11.2,31.8-25.5,62.4-42.7,91.4h33.7
	c11.7-22.3,22.5-45.2,30.9-69.2c0,0,239.5-11.7,298.7-19.5c-70.1,58.6-143.5,113-220,162.9h-204.8l-1.8,2
	c-191.9,215.7-522.4,234.9-738,43c-15.2-13.5-29.5-27.8-43-43l-1.8-2H651.4c-76.5-50-150-104.4-220.1-163
	c61.6,7.8,322.5,19.6,322.5,19.6c11.4,24.4,27.8,47.2,42.6,69.2h1.2c-17.2-29-31.5-59.6-42.7-91.4H428.2
	C364.1,642.1,302.4,585.5,243.5,526c71.2,7.8,475,21.2,475,21.6c0,21.8,8.1,43.1,14.7,64.1c-5.1-28.5-7.7-57.4-7.9-86.3l0.1-1.4
	H241.6C188.1,470,136.8,413.8,87.9,355.4l652.3,21.9c-3.5,21.9-5.5,45.4-8.2,69.2h0.2c4.9-31.5,12.5-62,22.8-91.4H87.6
	c-21.9-26-43-52.6-63.4-79.7h773.6l1.8-3.1c92.4-160.4,265.5-260,451.8-260s359.4,99.6,451.8,260l1.8,3.1h770.8
	C2455.4,302.6,2434.2,329.2,2412.4,355.1z"/>
<path class="st0" d="M1251.4,72.6c-253.3,0-458.6,202.7-458.6,452.9c0,250.1,205.3,452.9,458.6,452.9s458.7-202.8,458.7-452.9
	C1710.1,275.4,1504.7,72.6,1251.4,72.6z"/>
<path class="st0" d="M1251.4,950.7c-237.8,0-430.6-190.4-430.6-425.2s192.8-425.2,430.6-425.2s430.6,190.4,430.6,425.2
	S1489.2,950.7,1251.4,950.7z"/>
<path class="st0" d="M1656.8,525.5c0,221-181.5,400.2-405.4,400.2S846,746.6,846,525.5s181.5-400.2,405.4-400.2
	S1656.8,304.5,1656.8,525.5z"/>
<path d="M1544.6,416.2h54.2v225.5h-54.2V416.2L1544.6,416.2z M1195.9,416.2h54.2v225.5h-54.2V416.2L1195.9,416.2z M1448.5,416.2V553
	l-99.2-136.8h-51.1v225.5h51.1V504.9l99.2,136.8h51.2V416.2L1448.5,416.2L1448.5,416.2z M1080.5,416.2l-59.5,140.7l-59.5-140.7
	h-61.9v225.5h51.2V514l52.9,127.3l0.2,0.4h32.3l0.2-0.4l58.1-139.6v140h51.1V416.2L1080.5,416.2L1080.5,416.2z"/>
</svg>
