<?xml version="1.0" encoding="utf-8"?>
<!-- Generator: Adobe Illustrator 25.4.1, SVG Export Plug-In . SVG Version: 6.00 Build 0)  -->
<svg version="1.1" id="Layer_1" xmlns="http://www.w3.org/2000/svg" xmlns:xlink="http://www.w3.org/1999/xlink" x="0px" y="0px"
	 viewBox="0 0 2500 1547" style="enable-background:new 0 0 2500 1547;" xml:space="preserve">
<style type="text/css">
	.st0{fill-rule:evenodd;clip-rule:evenodd;fill:#FFFFFF;}
</style>
<path class="st0" d="M1251,1.9C561.1,1.9,0,347.5,0,774.5c0,423.7,561.1,770.6,1251,770.6c693.8,0,1249-346.9,1249-770.6
	C2500,347.5,1944.8,1.9,1251,1.9z M1251,150c645.2,0,1166.9,277.3,1166.9,624.5c0,344-521.8,622.5-1166.9,622.5
	C610.2,1397,88.1,1118.5,88.1,774.5C88.1,427.3,610.2,150,1251,150L1251,150z M356.3,486.3v574.5h148.1V818.5h250.2v102.1H536.4
	v140.1h280.2l84.1-58V810.5l-38-36l38-34V576.3l-76.1-90.1L356.3,486.3z M960.8,486.3v282.2l62,60l138.1-2V690.4l-26-24V486.3
	L960.8,486.3L960.8,486.3z M1385.1,486.3v180.1l-26,24H1193v370.3h172.1V826.5l130.1,2l62-58V486.3H1385.1z M1617.3,486.3v574.5
	h156.1V630.4h170.1l46,52v236.2h-184.1v142.1h338.3V588.4l-86.1-102.1L1617.3,486.3z M504.4,626.4h248.2v102.1H504.4V626.4z"/>
</svg>
