<?xml version="1.0" encoding="utf-8"?>
<!-- Generator: Adobe Illustrator 25.4.1, SVG Export Plug-In . SVG Version: 6.00 Build 0)  -->
<svg version="1.1" id="Layer_1" xmlns="http://www.w3.org/2000/svg" xmlns:xlink="http://www.w3.org/1999/xlink" x="0px" y="0px"
	 viewBox="0 0 2500 448" style="enable-background:new 0 0 2500 448;" xml:space="preserve">
<style type="text/css">
	.st0{fill:#FFFFFF;}
</style>
<path class="st0" d="M779.6,81.2v69.8H664.3v291h-75.8v-291H473.3V81.2H779.6z M449.1,442h-75.8V81.2h75.8V442z M1576.9,56
	c-15.4,0-27.8-12.5-27.8-27.8s12.5-27.8,27.8-27.8c15.4,0,27.8,12.5,27.8,27.8S1592.3,56,1576.9,56z M1699.7,56
	c-15.4,0-27.8-12.5-27.8-27.8s12.5-27.8,27.8-27.8c15.4,0,27.8,12.5,27.8,27.8S1715,56,1699.7,56z M1773.9,81.2v69.8h-191v63.7
	h169.7v69.7h-169.7v88h191v69.7h-266.7V81.2H1773.9z M1304,80c101.5-2,185.4,78.8,187.4,180.3c2,101.5-78.8,185.4-180.3,187.4
	c-2.4,0-4.8,0-7.1,0c-101.5-2-182.2-85.9-180.2-187.5C1125.6,161.5,1205.2,81.9,1304,80L1304,80z M1304,151.8
	c-61.8-1.5-113.2,47.4-114.7,109.2s47.4,113.2,109.2,114.7c1.9,0,3.7,0,5.6,0c61.8-1.6,110.7-53,109.2-114.8
	C1411.7,201.3,1363.6,153.3,1304,151.8z M279.1,322.9l62.3,35.7c-52.3,87.1-165.3,115.2-252.3,62.9S-26.2,256.3,26.1,169.2
	S191.4,54,278.4,106.3c25.8,15.5,47.4,37.1,62.9,62.9l-62.2,36.1c-32-52.8-100.7-69.7-153.6-37.7C92,188,71.6,224.5,71.8,263.9
	c-0.2,61.8,49.7,112.1,111.6,112.3C222.4,376.3,258.7,356.1,279.1,322.9z M1822.4,81.2h80.3l153.1,239.6V81.2h75.8V442h-91
	l-142.5-224.4V442h-75.8V81.2z M879.6,314.6V442h-75.8V81.8h172.1c66.6,0,120.6,54,120.6,120.6c0,48.2-28.6,91.7-72.9,110.8
	l87.9,128.8h-86.4l-86.4-127.4H879.6L879.6,314.6z M879.6,150.9v103.5h88.7c28.7-1.5,50.8-26,49.3-54.7
	c-1.4-26.7-22.7-47.9-49.3-49.3L879.6,150.9L879.6,150.9z M2334.7,162.3l-140.9,122l140.9-204.7l141,204.7L2334.7,162.3
	L2334.7,162.3z M2334.7,291.9l-165.2,136.5l165.2-225.9L2500,428.4L2334.7,291.9L2334.7,291.9z"/>
</svg>
