<?xml version="1.0" encoding="utf-8"?>
<!-- Generator: Adobe Illustrator 25.4.1, SVG Export Plug-In . SVG Version: 6.00 Build 0)  -->
<svg version="1.1"
	 id="Layer_1" image-rendering="optimizeQuality" shape-rendering="geometricPrecision" text-rendering="geometricPrecision"
	 xmlns="http://www.w3.org/2000/svg" xmlns:xlink="http://www.w3.org/1999/xlink" x="0px" y="0px" viewBox="0 0 311.8 255.8"
	 style="enable-background:new 0 0 311.8 255.8;" xml:space="preserve">
<style type="text/css">
	.st0{fill:#FFFDFE;}
</style>
<g>
	<path class="st0" d="M0,32l6.2,191.9h30.2l-0.7-79.6h25.3v-24.8H35.8l0.1-62.4h33.1L68.7,32H0z M80.7,32l3.8,191.9h31.2L116.3,32
		L80.7,32z M226.9,32v24.2h24.6l-0.7,167.7H281l6.4-167.7h24.4L311.6,32H226.9z M163.3,120.8l0.3-65.2h17.4
		c7.9,14.5,13,33.7,16.9,65.2H163.3z M135.5,223.9h28.9l0.3-79.3h34.6c2.7,14,3.4,57.2,3.5,79.3h28c2.7-98-5.6-153.3-28.2-191.9
		h-69.7L135.5,223.9z"/>
</g>
</svg>
