<?xml version="1.0" encoding="utf-8"?>
<!-- Generator: Adobe Illustrator 25.4.1, SVG Export Plug-In . SVG Version: 6.00 Build 0)  -->
<svg version="1.1" id="Layer_1" xmlns="http://www.w3.org/2000/svg" xmlns:xlink="http://www.w3.org/1999/xlink" x="0px" y="0px"
	 viewBox="0 0 2500 990.8" style="enable-background:new 0 0 2500 990.8;" xml:space="preserve">
<style type="text/css">
	.st0{fill-rule:evenodd;clip-rule:evenodd;}
	.st1{fill-rule:evenodd;clip-rule:evenodd;fill:#FFFFFF;}
</style>
<g>
	<path class="st0" d="M1256.2,925.1c670.1,0,1213.2-192.2,1213.2-429.2c0-237.1-543.2-429.2-1213.2-429.2
		C586.2,66.7,43,258.8,43,495.9C43,733,586.2,925.1,1256.2,925.1z"/>
	<path class="st1" d="M1238.1,912.1c656.7,0,1197.9-188.4,1197.9-420.7c0-232.3-541.2-420.7-1197.9-420.7
		C581.4,70.7,37.7,259.1,37.7,491.4C37.7,723.8,581.4,912.1,1238.1,912.1L1238.1,912.1z"/>
	<path class="st0" d="M2384.5,602c-53.5,55.9-118.4,92.7-185.4,122.4C2002,811,1783.4,852,1559.3,880.1
		c-358.5,43.2-727.5,4.5-1050.2-81.4C365.1,758.1,221.4,704.1,119,585.9c-21.5-29.7-46.3-59.3-45.1-97.6l4.6-12.8
		c1.3,5.6,4.2,11.6,10.1,15c11.8,5.3,29.9-0.4,37.1,11.6c5.1,13.9,1.3,31.2,10.5,43.5c29.1,56.7,87.2,115.2,150.8,144.9
		C457.3,782.2,650.7,823.4,848.7,855c286,44.7,615,37.5,895.2-13.5c161.4-28.5,319.7-63.4,462.1-133.2
		c67.4-30.4,123-91.2,156.7-149.4c13.5-24.8,24.4-50.7,24-81.1c0.9-3.4,2.5-8.3,7.6-8.6c12.2-3.8,32,4.9,35.4-11.6l2.1-6.8
		C2461.2,505.5,2425.4,561.1,2384.5,602L2384.5,602z"/>
	<path class="st0" d="M2371.1,474.4c1.3,51.4-28.2,92.3-58.1,132.5c-44.7,54.8-108.3,90-172.7,112.2c57.7-30.8,126.4-67.6,163.9-125
		c24-36,48-72.4,46.8-117.9C2356.8,475.1,2364.3,475.5,2371.1,474.4z M158.2,501.8c10.1,66.1,60.2,122.7,123.8,164l45.5,29.3
		c-81.3-30.8-164.3-100.9-186.2-177.9l-2.1-18.4L158.2,501.8L158.2,501.8z"/>
	<path class="st1" d="M1254.7,856.9c594.4,0,1076.3-166.4,1076.3-371.5c0-205.2-481.9-371.5-1076.3-371.5
		c-594.4,0-1076.3,166.4-1076.3,371.5C178.4,690.6,660.3,856.9,1254.7,856.9z"/>
	<path class="st0" d="M1253.6,827.9c575.5,0,1042.1-152.5,1042.1-340.7s-466.6-340.7-1042.1-340.7S211.5,299.1,211.5,487.2
		S678.1,827.9,1253.6,827.9z"/>
	<path class="st1" d="M1253.6,799.6c558,0,1010.4-139.8,1010.4-312.3c0-172.5-452.4-312.4-1010.4-312.4
		c-558,0-1010.4,139.9-1010.4,312.4C243.3,659.7,695.6,799.6,1253.6,799.6z"/>
	<path class="st0" d="M1110.4,241.8l165.9,21.9c84.9,11.3,183.5,13.7,265.7-5.5c9.2-0.3,21.1-3.8,28.4,2.7c3.9,3.1,4.6,7.2,3.5,11.6
		c-3.9,16.8-24.2,28.1-39.6,36.3c-72.2,37-173.6,20.9-251.2,4.8l-125.6-29.4h-0.4c-1.2,4.8,1.1,10.9-1.9,15.1
		c-48.8,26.3-93.7,69.5-121.7,112.6c27.7-1,56.1-2,82.6-7.2c-3.8-20.2,3.8-39,22.3-51.7c10-5.8,22.7-9.2,34.6-6.5
		c8.5,2.7,15.7,10.3,18.1,17.8c4.2,15.4-2.7,29.8-15,40.4c-8.4,6.5-17.7,11.6-27.7,14.7l0.4,1c6.9,5.5,15.7,9.6,21.1,16.4
		c0.4,2.2-0.3,4.5-1.9,6.2c-3.1,3.1-6.9,3.1-11.1,3.4c-14.2-1-22.7-13.7-32.6-22.2c-34.6,4.8-70.3,7.9-106,10.6l-22.7,28.7
		l-61.5,85.5c-48.4,65-121,140.6-218.1,130c-45.3-4.1-92.9-33.9-106-73.9c-17.7-50.3,11.1-96.8,55.3-127.3
		c16.5-10.3,36.1-16.8,57.2-14.4c4.6,1,9.2,4.1,11.1,8.2c1.2,3.4,1.2,7.9-1.1,10.3c-18.8,16.1-44.6,25.3-57.6,46.9
		c-10.8,16.4-14.2,42.1-1.1,58.5c20.3,24.6,58.4,28.4,89.1,19.5c82.6-25.7,141.3-104.4,193.6-164.6c-29.2,2.7-58,7.9-81,24.3
		c-2.3,1-6.1,1.7-8.8,0.3c-3.5-1.7-3.8-5.1-4.6-8.2c1.9-15.7,21.5-22.2,34.9-27.4c25.7-8.9,54.5-11.3,82.2-15.7
		c39.6-52.3,96.8-105,158.2-134.5c-99.5-20.9-246.6-51.3-320.7,34.6c-9.6,12.3-16.1,28.1-10.8,43.8c6.1,11.6,19.2,18.1,33,18.8
		c38.4,0.7,64.9-28.4,90.2-52.7c2.7-1.7,6.1-3.4,10-2.4c3.1,0.7,4.6,3.8,5.8,5.8c0.8,24.3-17.3,42.4-33,60.9
		c-32.3,31.8-76.4,53.4-124.4,39.7c-25.7-7.2-44.2-31.5-46.5-54.7c-5.8-46.9,27.7-87.2,72.2-108.5c68-34.9,154.8-39,238.1-30.8
		L1110.4,241.8L1110.4,241.8z"/>
	<path class="st0" d="M1724.9,616.8c-2.7,6.5-7.3,14.4-2.7,21.9c2.3,2.7,5.4,6.2,9.6,6.8c16.5,1.4,29.2-7.5,42.2-15.7
		c23-17.1,44.2-38.6,65.7-57.8c4.2-2.7,8.1-6.5,13.4-5.5c6.2,2,14.2,6.5,15.8,13l-0.8,3.1c-43,41.1-87.2,97.9-151.7,103.3
		c-17.3,1-31.9-4.8-42.2-16.8c-6.9-8.2-8.1-19.2-6.9-29.8c-33.4,26.3-74.9,54.4-121.4,36.3c-27.3-14.4-35.7-41.4-33.8-69.1
		c1.5-8.9,5-17.1,8.1-25.7c-27.3,16.1-57.6,40.3-93.7,26.7c-17.3-7.2-26.5-23.3-27.6-39.3c-1.2-5.1,0.4-10.9,0.4-15.7L1310.9,677
		l-57.6-0.3c-1.2-0.7-3.1-1.7-2.7-3.1l1.5-4.8l92.2-130.4c5-10.3,13.4-22.9,6.1-34.9c-7.3-5.8-17.3-0.7-24.6,1.7
		c-38.8,19.5-68.7,56.4-95.6,87.2c-36.1,44.1-85.6,99.9-154.8,88.6c-32.6-3.4-54.9-32.9-61.8-58.5c0-1-0.4-2.1-1.2-2.4
		c-15.7,12-27.7,28.8-44.9,37.3c-2.8,0.7-5.7,0.7-8.4,0c-6.9-5.1-8.8-12.3-10.4-19.5c2.7-8.9,13.8-12.3,20.4-19.2
		c48-45.5,61.8-113.3,131.7-141c17.3-7.2,35.7-11.6,56.5-11.3c5.8,0,10.8,4.4,13,9.2c2.2,3.3,4.6,8.4,2.3,12.3
		c-6.9,6.1-17.3,6.1-25.3,9.6c-39.6,16.1-78,52-81.4,91.4c-1.5,16.4,3.8,32.8,20.7,41.7c21.1,9.6,46.1,1.4,63-11.3
		c30.7-25,45.7-56.1,49.9-91.4c1.2-14.4-4.2-26.3-8.1-39c0-8.5,9.6-15.1,17.3-18.5c5.8-2.4,15-4.4,20.7-0.7
		c13.4,12.3,15.7,29.1,16.5,45.8c0,4.8,0.4,9.6-0.8,14c38-29.1,69.9-80.4,125.6-73.6c13.8,1.7,26.9,12.7,30,25
		c2.3,8.2,1.1,18.5-0.4,26.3c21.9-26,51.1-51.3,89.5-45.8c14.6,2,29.6,13.3,33.4,26.3c4.6,15.4-1.2,30.4-13.1,41.4
		c-8.4,6.5-17.7,10.6-29.2,9.6c-9.6-1-18.4-4.8-23.8-13c-5-7.2-5-18.8,0-25.7c-12.7,1.4-20.8,14.4-24.6,24
		c-4.2,13-10.4,31.1,2.3,42.8c8.4,11,25,7.2,36.9,5.5c76.4-23.3,122.1-115,213.5-105c16.5,1.7,33,7.9,41.1,22.6
		c3.1,6.1,5.8,12,6.9,18.8l104.8-145.8l64.5,4.1L1724.9,616.8z"/>
	<path class="st1" d="M1696.1,510.7c7.7,13.7-0.4,29.4-6.5,41.7l11.5,3.7c-22.3,29.1-45.3,66.7-84.9,79.7
		c-8.8,2.7-21.9,3.4-29.6-1.7c-12.7-8.6-13.8-23.3-11.1-36.6c11.1-40.3,47.2-88.3,97.2-96.1C1682.6,500.1,1690.7,504.2,1696.1,510.7
		L1696.1,510.7z M1168,361.7c4.6,3.4,3.4,9.8,2.5,14.3c-4.6,13.5-20.2,20.6-33.7,24.4c-2.9-15.8,1.3-32.3,17.3-40.2
		C1158.3,358.7,1164.6,358.7,1168,361.7L1168,361.7z"/>
</g>
</svg>
