<svg xmlns="http://www.w3.org/2000/svg" viewBox="0 0 252.04 34.67"><g id="Layer_2" data-name="Layer 2"><g id="Layer_1-2" data-name="Layer 1"><path d="M96.8,4.9v9.48H86.06V4.9H80.14V29.78h5.92v-10H96.81v10h5.93V4.9Zm27.63,0-6.19,9.85L112.05,4.9h-7l10.23,16.26v8.62h5.91V21.16L131.43,4.9Zm26,0V23.13a1.22,1.22,0,0,1-1.25,1.25h-9.49V4.9h-5.92V29.78H151.3A5.09,5.09,0,0,0,155,28.41a5,5,0,0,0,1.37-3.71V4.9Zm28.92,0H161.88V29.78h5.92V10.28h9.51a1.22,1.22,0,0,1,1.24,1.24V29.78h5.92V10a5.1,5.1,0,0,0-1.36-3.72,5.07,5.07,0,0,0-3.72-1.36m28.07,0H190V29.78h17.5a4.76,4.76,0,0,0,5.09-5.09V10a5,5,0,0,0-1.38-3.72,5,5,0,0,0-3.71-1.36m-.83,6.67V23.09a1.25,1.25,0,0,1-1.2,1.29h-9.56V10.28h9.46a1.23,1.23,0,0,1,1.29,1.29M222.87,4.9a5,5,0,0,0-3.72,1.36A5.08,5.08,0,0,0,217.78,10v19.8h5.91v-7.7h10.75v7.7h5.92V4.9Zm11.57,5.38v6.41H223.69V11.54A1.25,1.25,0,0,1,225,10.28Zm11.68,19.5H252V4.9h-5.92ZM33.84,34.67c18.7,0,33.86-7.76,33.86-17.33S52.54,0,33.84,0,0,7.75,0,17.34,15.15,34.66,33.84,34.66m6.38-8.5c-.57,1.31-1.54,4.11-3.77,5.22a5.7,5.7,0,0,1-2.26.52h-.34a59,59,0,0,1-16.93-2.35l-.18-.07c-.46-.15-.68-.36-.68-.62a.78.78,0,0,1,.28-.55l.3-.27a40,40,0,0,1,10.89-5.83,53.81,53.81,0,0,1,8-2.54c1.72-.36,8.09-1.33,4.73,6.49M57.32,8.69a.67.67,0,0,1,.57-.4,1.05,1.05,0,0,1,.7.23c4,2.44,6.33,5.5,6.33,8.81,0,6-7.68,11.11-18.67,13.36-.7.14-1.17.13-1.33-.05a.41.41,0,0,1,0-.53,2,2,0,0,1,.29-.41c6-7,10.55-17.46,11.84-20.46.1-.21.19-.41.27-.55M27.57,8.47c.57-1.31,1.54-4.1,3.77-5.21a5.57,5.57,0,0,1,2.26-.52h.34A58.75,58.75,0,0,1,50.88,5.09l.18.07c.45.15.68.36.68.61a.76.76,0,0,1-.28.55l-.31.27C50,7.53,46.64,10,40.27,12.42a53.77,53.77,0,0,1-8,2.54c-1.72.36-8.1,1.33-4.74-6.49M21.44,4c.71-.14,1.18-.14,1.35,0a.43.43,0,0,1,0,.53,2.34,2.34,0,0,1-.29.41C16.5,12,11.94,22.41,10.64,25.42c-.09.2-.19.41-.27.55a.68.68,0,0,1-.56.4,1.15,1.15,0,0,1-.71-.23c-4-2.44-6.33-5.5-6.33-8.81,0-6,7.68-11.12,18.67-13.36" style="fill:#fff"/></g></g></svg>