<?xml version="1.0" encoding="utf-8"?>
<!-- Generator: Adobe Illustrator 25.4.1, SVG Export Plug-In . SVG Version: 6.00 Build 0)  -->
<svg version="1.1" id="Layer_1" xmlns="http://www.w3.org/2000/svg" xmlns:xlink="http://www.w3.org/1999/xlink" x="0px" y="0px"
	 viewBox="0 0 2500 1209.6" style="enable-background:new 0 0 2500 1209.6;" xml:space="preserve">
<style type="text/css">
	.st0{fill-rule:evenodd;clip-rule:evenodd;fill:#FFFFFF;}
</style>
<g>
	<path class="st0" d="M628.2,1042.2c-8.6-7.1-20.6-30.3-24.7-38.9L466.7,674.2h-39.8l-125.8,314c-5.5,14.1-28.4,55-32.7,61.6
		c-4,6.1-10.1,16.1,5,16.1h49.3l39.4-99h143.8l41.3,99h79C637.8,1066,639.3,1051.4,628.2,1042.2L628.2,1042.2z M382.1,918.6
		l50.3-128.2l53.4,128.2H382.1L382.1,918.6z M1786.8,1042.2c-8.6-7.1-20.6-30.3-24.7-38.9l-136.9-329.2h-39.8l-125.8,314
		c-5.6,14.1-28.4,55-32.7,61.6c-4,6.1-10.1,16.1,5,16.1h49.3l39.4-99h143.8l41.3,99h79C1796.3,1066,1797.9,1051.4,1786.8,1042.2
		L1786.8,1042.2z M1540.7,918.6l50.3-128.2l53.3,128.2H1540.7L1540.7,918.6z M127.4,726.4V997c0,117.1-78.5,157.5-90.6,172.7h88.6
		c49.7-33.5,80.5-105.8,80.5-150.4V673.9h-78.5c-9.1,0-14.1,6.1-10.1,16.2C121.3,700.1,126.4,709.2,127.4,726.4z M916.5,878.1h78.5
		v167.6c-23.2,15.1-55.4,29.3-124.8,29.3c-69.5,0-207.4-33.3-207.4-208c0-174.7,172.1-198.9,210.4-198.9c38.3,0,88.6,9.1,115.8,20.2
		v57.6c-21.1-7.1-52.3-30.3-110.7-30.3c-66.4,0-131.9,54.5-132.9,157.5c-1,103,71.5,184.8,171.1,149.4v-103c-0.5-11.1-2-19.2-7-26.3
		C905.7,888,903.4,878.1,916.5,878.1L916.5,878.1z M1386.4,946.8V728.2c0.5-11.1,9.6-31.8,14.6-38.9c3.7-5.3,6-15.1-7.1-15.1h-59.4
		c-13.1,0-10.8,9.9-7,15.1c5,7.1,14.1,27.8,14.6,38.9v191.3c0,57.6-41.3,109-100.7,109c-59.4,0-84.6-61.6-84.6-93.9V674.2h-78.5
		c-13.1,0-10.8,9.9-7.1,15.1c5,7.1,6.5,15.1,7.1,26.2v227.2c0,68.7,75.5,131.3,163.1,131.3C1329.1,1074,1386.4,997.3,1386.4,946.8
		L1386.4,946.8z M1943.8,1002.8c0,7.6,6.1,37.4,10.1,47c4,9.6-1.5,16.1-10.1,16.1h-78.5V715.6c-0.5-11.1-2-19.2-7.1-26.2
		c-3.7-5.3-6-15.1,7.1-15.1h114.8c29.2,0,128.9-3,129.9,109c1,30.3,0,57.6-46.3,88.9c-9.1,6.1-14.1,14.1-7,26.3
		c7,12.1,61.9,109.5,61.9,109.5c9,14.1,24.3,35.3,29.7,39.4c6.5,5.1,8.6,18.7-2.5,18.7h-81l-96.2-174.7c-6-11.1-6-21.2,8.1-25.2
		c17.8-5.1,55.9-3,55.9-84.8c0-76.2-52.4-67.1-69.5-67.1c-17.1,0-19.2,12.6-19.2,30.8L1943.8,1002.8L1943.8,1002.8z M243.6,1126.9
		v26.2h2210.7v-26.2H243.6z"/>
	<path class="st0" d="M2417.4,607.3h-68.9c-38.3,1-57.4-19.7-65.8-26.5c-240.7-173.4-689.8-370.3-1094.4-506.6
		C1135.9,58.1,1058.4,47,1010.1,47c-48.3,0-71.5-4-121.8-2C840,46.9,789.6,55,761.4,63.1s-91.6,24.2-94.6,62.6
		c-24.2,18.2-48.8,42.9-58.9,53c-10.1,10.1-13.6,29.8,6.5,52c20.1,22.2,44.3,44.4,60.4,34.3c16.1-10.1,12.1-22.2,18.1-34.3
		c6-12.1,26.2-30.3,46.3-8.1c20.1,22.2,7.5,31.8-4,42.4c-10.7,9.8-32.2,28.3-18.1,46.4c14.1,18.2,30.2,24.2,52.3,8.1
		c16.3-11.9,59.7-36.8,84.9-50.8c6.2-3.8,13.8-12.8,41.3-1.7c29.7,11.4,75.5,31.8,94.7,42.4l-41.8,19.2
		c-22.2,14.1-41.3,54-43.3,68.2c-2,22.2,6,54,36.2,80.3h65.4l39.3-56.5l-3-6.1c50.3-6.1,187.3,35.3,251.7,10.1
		c44.3,18.2,122.8,28.3,267.8,14.1c26.2-2,61.9-7.6,84,21.2c22.9,29.7,135.4,148.4,171.6,160.5c36.3,12.1,187.3,12.1,226.5,19.2
		c33.9,6.1,47.3,0,75.5,32.3l60.4,53.5c7,8.1,28.2,23.7,52.4,23.7h41.8c24.2-2,37.2-19.2,43.3-39.4h102.7c32.2,0,42.3-28.8,42.3-55
		S2445.6,607.3,2417.4,607.3L2417.4,607.3z M2417.9,685.6h-97.1c-5.6-42.9-37.3-48.9-55.4-50c-17.6-1-31.2-8.1-39.3-13.1
		c0,0-65.4-58.6-83.6-77.8c-18.1-19.2-30.2-25.2-47.3-25.2h-59.4c-12.1,0-26.2,1-46.3-26.3c-20.1-27.3-71.5-70.7-84.6-79.8
		c-13.1-9.1-16.1,1-8.1,8.1c7,7.1,40.3,28.3,60.4,61.6c20.1,33.3,37.2,50.5,51.3,57.6c12.1,8.1,49.3,7.1,71.5,7.1
		c22.2,0,30.2,2,48.3,20.2s59.4,54.5,70.5,66.7c11.1,12.1,30.2,23.2,57.4,23.2s40.3,17.2,39.3,33.3c-0.9,15.1-9.1,32.3-21.2,32.3
		h-43.3c-7,0-23.2-10.1-27.2-14.1c-14.1-10.1-49.3-40.4-69.5-61.6c-20.1-21.2-40.3-27.3-67.4-31.3c-27.2-4-140-9.1-165.1-10.1
		c-25.2-1-63.4-1-90.6-18.2c-26.7-16.9-132.9-133.3-151-154.5c-21.2-24.2-52.8-21.2-72-21.7c-188.3,20.7-255.2,1.5-275.3-10.6
		l19.6-33.8c58.9,13.6,139.4,0.5,150.5-2.5c11.1-3,9-14.1-2-12.1c-25.1,3-134.9-10.1-146-12.1c-1-28.3-64.4-113.1-72.5-129.2
		c-8.1-16.2-1-26.3,7-33.3c8.1-7.1,8.1-16.1,1-16.1c-29.2,3-36.2,26.3-30.2,54.5c6,28.3,68.4,110,64.4,129.2
		c-4,19.2-23.2,45.9-34.2,57c-54.4,13.1-175.2-19.2-244.6-17.2c-26.7,0.8-22.2,23.7-12.6,31.8l-22.2,32.3h-31.7
		c-17.1-5.1-23.2-31.3-26.2-44.4c0.8-8.5,7-33.3,28.2-51.5c42.8-36.8,213.4-20.2,228.5-20.2c15.1,0,11.1-7.1,2-10.1
		c-16.1-4-64.9-17.2-93.6-18.2c-6.5-19.2-18.6-32.8-22.7-51.5c-3.4-15.9,1-35.8,6.5-48c7.5-23.2-8.6-19.7-14.1-13.1
		c-7.6,11.1-26.7,35.8-27.7,54c-1,18.2,17.6,50.5,22.7,58.6c-9.1,0-25.2,1-32.2,1c-48.8-41.4-136.4-69.2-153.5-75.2
		c3-8.1,7.5-16.7,10.6-26.8c3-10.1,9.1-8.1,16.1-6.1c10.1,5,57.4,22.2,72.5,28.3c15.1,6.1,29.2,3,36.2-3s30.2-26.3,40.3-40.4
		c10.1-14.1-6-15.1-12.1-8.1c-19.1,17.7-47.3,27.3-62.4,24.2c-15.1-3-63.4-27.3-75.5-35.3c-27.2-12.1-37.2,7.1-40.3,18.2
		c-17.6,51.1-46.3,75.1-66.9,90.4c-6,5-33.3,21.1-41.3,26.3c-7,4.5-11.6-3-8.6-7.6c6-4.6,28.2-27.3,29.7-35.3c5-29.3-3-38.9-15.1-52
		c-12.1-13.1-27.7-17.7-45.8-17.7c-18.1,0-35.2,16.7-41.3,22.7c-6,6.1,1.5,18.2-8.6,25.3c-10.1,7.1-21.6-11.6-27.7-19.7
		c13.1-15.1,12.1-22.2,9.1-36.4c4.3-3.3,11.2-11.2,19.6-18.7c7.1,4,21.1,6.1,30.2,4c48.8-4,57.4,1.5,68.5,6.6s14.6-2,10.6-9.1
		c-5.4-9.5-9.6-13.1-19.6-23.2l19.6-6.1c22.2,0,44.3,8.1,55.4,9.1c11.1,1,18.1,1,22.2-7.1c7-21.2,20.1-25.2,29.2-28.3
		c9.1-3,16.1-11.1,8.1-13.1h-20.1c-17.1,1-18.1,7.1-23.2,13.1c-5,6.1-11.1,13.1-24.2,11.1c-13.1-2-40.8-6.6-56.9-5.6
		c-12.6,0.8-30.7,13.6-65.9,12.6c14.1-35.3,145-49.5,170.1-50.5c167.1-7.1,202.4,1,278.9,17.2s191.6,53.7,412,141.6
		c209.5,83.5,616.2,288.5,710.2,372.1c5.3,5.3,36,27,70.8,27h72.5c18.1,0,23.2,16.7,23.2,24.7S2433,685.6,2417.9,685.6L2417.9,685.6
		z"/>
</g>
</svg>
