<?xml version="1.0" encoding="utf-8"?>
<!-- Generator: Adobe Illustrator 25.4.1, SVG Export Plug-In . SVG Version: 6.00 Build 0)  -->
<svg version="1.1" id="Layer_1" xmlns="http://www.w3.org/2000/svg" xmlns:xlink="http://www.w3.org/1999/xlink" x="0px" y="0px"
	 viewBox="0 0 1696.3 388" style="enable-background:new 0 0 1696.3 388;" xml:space="preserve">
<style type="text/css">
	.st0{fill-rule:evenodd;clip-rule:evenodd;fill:#FFFFFF;}
</style>
<g>
	<path class="st0" d="M47.8,58.5h326.5c66.6,0,93.9,36.5,93.9,81.2V209c13.7-34.7,47.4-48.3,83-48.3h117.6c0-10.9,0-21-19.2-21
		H479.2V58.5h189.7c63.8,0,93,32.8,93,81.2v124.9l253.5-206.1h250.8c83.9,0,106.7,71.1,106.7,140.4c16.4-27.4,45.6-38.3,76.6-38.3
		h114.9c0-10.9,0-21-18.2-21h-166.9V58.5h185.1c62,0,91.2,32.8,91.2,81.2v198.8h-206.1c-46.5,0-78.4-27.3-85.7-71.1
		c-13.7,40.1-42.9,71.1-96.7,71.1h-204.3V139.7h-15.5L805.7,338.5H551.2c-41,0-71.1-20.1-83-52.9v52.9h-93.9v-176
		c0-15.5-7.3-22.8-21.9-22.8h-44.7v198.8h-93.9V139.7h-72v198.8H47.8V58.5z M922.4,264.6L833,338.5h213.4v-73.9H922.4L922.4,264.6z
		 M774.6,58.5v81.2h114.9l97.6-81.2H774.6z M1465.9,225.4c-9,0-16.4,7.2-16.4,16.3c0,0.1,0,0.1,0,0.2v6.4c0,9,7.2,16.4,16.3,16.4
		c0.1,0,0.1,0,0.2,0h98.5v-39.2L1465.9,225.4L1465.9,225.4L1465.9,225.4z M567.6,225.4c-9,0-16.4,7.2-16.4,16.3c0,0.1,0,0.1,0,0.2
		v6.4c0,9,7.2,16.4,16.3,16.4c0.1,0,0.1,0,0.2,0h101.2v-39.2L567.6,225.4L567.6,225.4L567.6,225.4z M1155.9,139.7v124.9h80.3
		c24.6,0,44.7-20.1,44.7-43.8v-38.3c0-24.6-20.1-42.9-44.7-42.9H1155.9z"/>
</g>
</svg>
