<?xml version="1.0" encoding="utf-8"?>
<!-- Generator: Adobe Illustrator 25.4.1, SVG Export Plug-In . SVG Version: 6.00 Build 0)  -->
<svg version="1.1" id="Layer_1" xmlns="http://www.w3.org/2000/svg" xmlns:xlink="http://www.w3.org/1999/xlink" x="0px" y="0px"
	 viewBox="0 0 2500 566.6" style="enable-background:new 0 0 2500 566.6;" xml:space="preserve">
<style type="text/css">
	.st0{fill-rule:evenodd;clip-rule:evenodd;fill:#FFFFFF;}
</style>
<g>
	<path class="st0" d="M1421.6,131h118.6v266h246.5v72.3h-365.2V131z M1113.9,264.5h212.3v67.7h-212.3v65.7h267.8v71.4H994.3V131
		h387.4v70.5h-267.8L1113.9,264.5L1113.9,264.5z M536.5,131l314,0.3c64.4,0,110.6,39,109.6,110.6c-1.1,81.1-34.3,119.3-108.1,119.2
		H657.9v106.3H536.5V131z M659.6,202.2l141,0.1c6.6,0.5,40.5-6,42.1,44.9c1.4,43.1-24.1,45-39.3,44.1H659.6V202.2z M212.5,204.9h109
		c33.3,0,60.2,27,60.2,60.2v65.4c0,33.3-27,60.2-60.2,60.2h-109c-33.3,0-60.2-27-60.2-60.2v-65.4
		C152.2,231.9,179.2,204.9,212.5,204.9z M174.8,125.7h186.5c106.7,0,135.5,54.3,135.5,137.8v71.6c0,87.9-42.9,135.5-135.5,135.5
		h-189c-100.1,0-135.5-47.5-135.5-135.5v-71.6C36.8,168.4,81.5,125.7,174.8,125.7z M1883.1,241.3l76.2-0.7
		c24-95.3,110.3-165.8,213-165.8c121.3,0,219.6,98.3,219.6,219.6c0,1.9,0,3.8-0.1,5.7l71.4,3.3v37l-76.3,0.7
		c-21.4,98.9-109.4,173-214.7,173c-121.3,0-219.6-98.3-219.6-219.6c0-4.1,0.1-8.3,0.3-12.4l-69.9-1.8L1883.1,241.3L1883.1,241.3
		L1883.1,241.3z M1983.4,240.4l313-2.8l-73.2,54.7l145.5,6.8c0-1.5,0.1-3,0.1-4.6c0-108.5-87.9-196.4-196.4-196.4
		C2082.6,98.1,2006.9,158.2,1983.4,240.4L1983.4,240.4z M2363.1,341.4l-312.2,2.8l77.8-57.4l-152.4-4c-0.2,3.9-0.4,7.8-0.4,11.7
		c0,108.5,87.9,196.4,196.4,196.4C2264.6,490.9,2342,427.2,2363.1,341.4L2363.1,341.4z"/>
</g>
</svg>
