<?xml version="1.0" encoding="utf-8"?>
<!-- Generator: Adobe Illustrator 25.4.1, SVG Export Plug-In . SVG Version: 6.00 Build 0)  -->
<svg version="1.1" id="Layer_1" xmlns="http://www.w3.org/2000/svg" xmlns:xlink="http://www.w3.org/1999/xlink" x="0px" y="0px"
	 viewBox="0 0 2500 1071.2" style="enable-background:new 0 0 2500 1071.2;" xml:space="preserve">
<style type="text/css">
	.st0{fill-rule:evenodd;clip-rule:evenodd;fill:#FFFFFF;}
</style>
<g>
	<path class="st0" d="M2148,816.9v-57.6h315.3v57.6h-86.5v222h-142.4v-222L2148,816.9L2148,816.9z M430.9,759.3h296.6v57.6H573.3
		v52.5h154.2v57.6H573.3v54.2h154.2v57.6H430.9V759.3z"/>
	<path class="st0" d="M1964.9,746.6c-108.5,0-196.5,53.4-196.5,153.4c0,96.6,88,153.4,196.5,153.4c108.5,0,196.5-55.1,196.5-153.4
		C2161.5,796.6,2073.5,746.6,1964.9,746.6L1964.9,746.6z M1993.9,995.9c-51.6,0-93.5-42.9-93.5-95.9c0-52.9,40.2-103.5,91.8-103.5
		c51.6,0,95.2,50.5,95.2,103.5C2087.4,952.9,2045.5,995.9,1993.9,995.9L1993.9,995.9z M302.9,759.1H36.8V1039h142.4v-62.7l123.7,0.2
		c59.6,0,107.9-49.1,107.9-108.7C410.7,808.2,362.4,759.1,302.9,759.1L302.9,759.1z M291.2,912H179.3v-88.4l111.9,0.1
		c24.5,0,44.3,19.4,44.3,43.9C335.5,892.1,315.7,912,291.2,912z M1006.8,922.1c0,29.8-24.1,53.9-53.9,53.9
		c-29.8,0-53.9-24.1-53.9-53.9V759.4H756.3v171.2c0,93.2,98.3,118.6,166.1,118.6s149.2-33.9,152.5-122V759.3h-67.8L1006.8,922.1z
		 M1444.4,759.3H1741v57.6h-154.2v52.5H1741v57.6h-154.2v54.2H1741v57.6h-296.6V759.3z M1301.2,980.9c-42.4,0-76.7-39.4-76.7-81.8
		c0-42.4,34.3-75,76.7-75h114.4v-64.8l-182.2-0.4c-77.4,0-140.2,62.8-140.2,140.2s62.8,140.2,140.2,140.2h182.2V905.1h-88.2v75.8
		L1301.2,980.9z M1432,525.5c-5.7,3.2-32.3,12.9-35.5-25c-0.8-13.7-3.6-39.9-8.9-44.4c11.3,2.4,38.4-6.1,47.6-29.9
		c10.4-26.8,2.2-55-23.4-122.7c-23.8-62.9-25-96-25-106.5c0-10.5,2.4-38.7,12.1-47.6c9.7-8.9,11.3,0.8,8.9,6.5
		c-2.4,5.7-20.2,57.3,29.1,69.4c-2-6-3.1-12.2-3.2-18.6v-51.6c0.8-11.3-8.1-27.4-21-29.1c-12.9-1.6-36.3,0.8-41.2,34.7
		c-1.6-14.5-21.8-83.1-33.1-94.4l-37.9-12.9l-69.8,19.8c-6.5,2.4-11.7,4.4-13.3,14.1l-56.5,22.6c-6.5,3.2-7.3,6.5-7.3,16.1
		c4,2.4,5.7,4.9,5.7,11.3v17.8l30.7,18.6h19.4c1.6-6.5,4.9-15.3,14.5-15.3c9.7,0,15.3,13.7,15.3,25h-78.3l9.7,12.1h68.6
		c0,6.5-6.5,23.4-15.3,23.4c-8.9,0-12.1-7.3-13.7-13.7h-22.2l-21.4,32.3l-88-100.9c-11.3-14.5-25.8-20.2-39.5-20.2h-23.4
		c-18.6,0-30.3,9.7-32.7,29.9c7.3,1.6,6.8,7.3,6.8,12.1V177c0,4.9-2.4,9.7-5.7,11.3c-3.2,1.6-3.7,16.1,13.3,17.8
		c17,1.6,24,4.2,23.2,32.9c5.7-2.8,12.3-2.6,16.7-0.6c7.2,3.3,33.5,5,45.7-1.9l56,80.2l-124.3,13.3c-16.9,2.4-26,6.7-31.7,31.1
		c6.5,4,8.3,9.7,8.3,16.1V390c0,5.7-2.4,12.9-8.1,16.1c3.2,5.7,9.7,8.9,14.5,8.9c4.8,0,26.6-4,37.9-3.2c11.3,0.8,24.2,0,33.1,16.1
		c8.1,0,21-8.1,22.6-44.4h94l14.1,20.4l-58.1,114.4c9.3,7.7,23,33.5-4,49.2l-19.4-25.8c-4.9-7.3-10.5-17-30.7-17h-18.2
		c-15.3,0-28.2,12.5-30.7,27.8c7.7,2.8,9.3,6.5,9.3,14.9v27.8c0,6.5-3.2,10.1-8.1,11.7c0,8.9,4,19.4,17,20.2
		c12.9,0.8,50.8-3.2,56.5,21c13.7,0.8,21.8-4,31.5-12.9c9.7-8.9,25.8-10.5,35.5-7.3l88.4-126.3l59.3,85.1
		c10.5-8.1,51.6,8.1,34.7,32.3c-11.3-2.4-65.4-12.1-65.4,15.3v46c12.1-0.8,21-3.2,32.3,12.1c11.3,15.3,16.1,19.4,29.8,20.2
		c0.8-6.5,1.6-28.2,42.8-25c11.3,0.8,31.5,3.2,37.1-6.5c-3.2-4.8-7.3-5.7-7.3-25.8L1432,525.5L1432,525.5L1432,525.5z M1373.5,252.6
		l40.3,112.2c12.9,37.9,4.5,56.9-9.3,66.6c-13.7,9.7-28.7,4-35.1-5.6l-36.7-52C1356.1,343,1375.5,268.3,1373.5,252.6z M1411,666.7
		h-33.1c-17.8,0-25,8.9-27.4,16.9c-10.5-15.3-24.2-21-32.3-21v-14.5c0-24.2,46.8-11.3,57.3-8.1c37.9-46.8-24.2-81.5-37.9-72.6
		L1269,467.4L1171.3,607c-15.3-2-38.7,7.3-44.4,16.1c-12.1-14.9-43.2-15.3-59.7-16.1v-47.6c0-6.9,1-14.3,15.1-14.3
		c14.1,0,15.5,3.8,19.6,8.7l25,35.5c57.3-6,48.4-62.9,38.7-73.4l57.3-113l-26.8-38.7h-127.3c7.3,14.5,3.2,33.5-0.8,38.3
		c-14.9-13.3-44.4-10.9-58.1-10.1v-28.2c0-13.7,4.9-13.7,13.7-15.3l150.3-16.1l-84.1-121c-10.9,11.3-39.5,8.9-50,6.5
		c-3.2-20.2-17-28.2-30.7-28.2v-41.2c0-11.3,6.5-12.9,13.7-12.9h17.3c11.3,0,17.4,6.9,23,13.7l104.9,121l32.3-48.4
		c4,6.5,14.5,14.5,24.2,14.5c12.9,0,35.5-15.3,35.5-48.4s-20.2-46.8-35.5-46.8s-23.4,7.3-25,10.5s-4.9,4-9.7,1.6l-11.3-7.3v-21.8
		l50-20.2c2.4-10.5,7.3-11.3,16.1-14.5l59.7-16.9l21,11.3c42,92.8,44.7,203.4-17.8,291.3l47.6,67c24.2,30.7,21.8,61.3,24.2,80.7
		c2.4,19.4,23.4,25,31.5,24.2L1411,666.7L1411,666.7L1411,666.7z"/>
</g>
</svg>
