<?xml version="1.0" encoding="utf-8"?>
<!-- Generator: Adobe Illustrator 25.4.1, SVG Export Plug-In . SVG Version: 6.00 Build 0)  -->
<svg version="1.1" id="Layer_1" xmlns="http://www.w3.org/2000/svg" xmlns:xlink="http://www.w3.org/1999/xlink" x="0px" y="0px"
	 viewBox="0 0 2500 267.4" style="enable-background:new 0 0 2500 267.4;" xml:space="preserve">
<style type="text/css">
	.st0{fill-rule:evenodd;clip-rule:evenodd;fill:#FFFFFF;}
	.st1{fill-rule:evenodd;clip-rule:evenodd;}
</style>
<g>
	<path class="st0" d="M391.2,180V96.3c0-26.7,18.8-42.7,44.8-42.7h225.9c26,0,44.8,16,44.8,42.7V180c0,26.7-18.8,42.7-44.8,42.7H436
		C410,222.7,391.2,206.8,391.2,180z M36.8,53.6h276.9c26.5,0,37.9,25.3,37.9,48.6v19.6c0,29.6-17.7,51-48.4,51H75.4v49.8H36.8V53.6z
		 M748.4,53.6h278.1c19.8,0,37.9,13.1,37.9,33.9v43.9c0,18.4-14.3,28.1-30.5,32.4c23.4,11,28.1,35.3,30.5,58.9h-37.9
		c-1.7-25.5-12.6-49.8-42-49.8H787.1v49.8h-38.6V53.6z M1414.3,53.6v33.9h-257.1c-10.3,0-14.6,7.4-14.6,17.2
		c0,9.3,4.8,16.5,14.6,16.5h209.6c34.3,0,52.9,16.5,52.9,51.5c0,29.3-15.7,50.1-46.3,50.1H1110v-33.9h256.9
		c8.8,0,12.6-7.6,12.6-15.5c0-9-1.9-18.6-12.6-18.6h-217.8c-28.1,0-44.4-21.7-44.4-48.6c0-33.6,18.1-52.5,52.5-52.5L1414.3,53.6
		L1414.3,53.6z M1760.6,53.6v33.9h-253.8c-6,0-8.1,5.7-8.1,10.7v82.3c0,5,3.1,8.3,8.1,8.3h253.8v33.9h-253.8
		c-27.7,0-46.5-19.1-46.5-47v-72.5c0-32,13.6-49.6,46.5-49.6L1760.6,53.6L1760.6,53.6L1760.6,53.6z M1802.1,53.6h38.9v65.8h224.4
		V53.6h39.8v169.1h-39.8v-69.4H1841v69.4h-38.9V53.6z M2146,53.6h317.2v33.9h-278.6v32.7h278.6v33.6h-278.6v35.1h278.6v33.9H2146
		V53.6z"/>
	<path class="st1" d="M452.2,188.9h196.1c11.9,0,21.7-5.2,21.7-18.8v-63.7c0-13.6-9.5-18.8-21.7-18.8H452.2
		c-12.2,0-21.9,5.3-21.9,18.8V170C430.3,183.6,440.3,188.9,452.2,188.9z M75.4,87.5V139h220.4c9.5,0,17.9-3.8,17.9-14.6v-19.1
		c0-11.2-6.7-17.9-17.9-17.9L75.4,87.5L75.4,87.5z M787.1,87.5V139H1017c7.6,0,9.5-6.4,9.5-12.9v-22.9c0-11-4-15.7-15.3-15.7
		L787.1,87.5L787.1,87.5L787.1,87.5z"/>
</g>
</svg>
