<?xml version="1.0" encoding="utf-8"?>
<!-- Generator: Adobe Illustrator 25.4.1, SVG Export Plug-In . SVG Version: 6.00 Build 0)  -->
<svg version="1.1" id="Layer_1" xmlns="http://www.w3.org/2000/svg" xmlns:xlink="http://www.w3.org/1999/xlink" x="0px" y="0px"
	 viewBox="0 0 2500 2500" style="enable-background:new 0 0 2500 2500;" xml:space="preserve">
<style type="text/css">
	.st0{fill-rule:evenodd;clip-rule:evenodd;fill:#FFFFFF;}
</style>
<g>
	<path class="st0" d="M1176.5,580.7c364.1-34,688,235.2,722.1,599.6c33.4,364.1-235.5,688-599.6,721.8
		c-364.1,34.1-688.4-235.2-722.1-599.2C543.2,938.8,812.4,614.5,1176.5,580.7L1176.5,580.7z M1147.6,168.3
		c591-54.4,1118,383.2,1173.1,974.1c54.4,591.6-383.2,1118.6-974.1,1173.1c-591.3,55-1118.6-382.5-1173-973.8
		C118.3,750.4,555.9,223.3,1147.6,168.3L1147.6,168.3z M1144.7,115.1c625-57.9,1182,404.8,1239.9,1029.8
		c57.9,625-404.5,1181.9-1029.5,1239.9c-624.7,57.9-1181.6-404.5-1239.6-1029.5C57.2,730.6,520,173.4,1144.7,115.1L1144.7,115.1z
		 M1500.2,1632.5L991,1585.4c-43.6-10.5-85,1.3-123.5,33.7c-20.7,11.1-88.8,8.9-98.3-19.1c-20.1-75.7-29.3-109.8-82.1-152.4
		c-15.9-18.1-13.4-31.2,7.6-38.5l152.4,14c27.7,2.9,47.1,10.2,63,18.8l81.8,46.2c7,4.5,36.3,7.3,37.2-23.2
		c3.5-84-31.8-179.5-98.6-254c-20.7-22.3-50.3-41.4-82.1-59.2c-25.5-11.8-50.6-20.7-76.7-23.6c-51.2-3.5-80.8-10.8-88.5-21.6
		c-31.2-22.9,5.4-87.2,18.8-120.3c15.3-36.3,37.6-71,72.2-85.9c52.8,8,121.3,43.3,198.6,94.2c24.8,3.5,31.5-5.7,18.1-28
		c-54.1-50-184-92.9-181.4-121.3c22.3-52.2,94.2-94.8,147.7-127.9c37.9-24.5,80.8-41.4,110.4-36.6c33.1,11.1,89.7,81.8,172.8,193.2
		c15.9,22,43,2.9,30.9-21.3c-16.9-24.8-37.2-53.8-44.6-64.6c-47.4-62.1-88.2-102.1-87.8-118.7c7.6-35.3,94.2-39.1,207.5-19.7
		c209.1,153.7,282.6,494.6,146.4,827.4c-4.5,11.5-8,27.1-7.6,39.5c0.3,13.4,8,19.4,22.6,19.7c13.3-0.3,19.4-3.2,24.2-14
		c-0.3-14-2.9-22.9,5.1-35.6c56.3-8.6,169.6,56.6,200.2,113.9c-35.3,46.5-126.4,90-201.8,89.7c-8.3-1.3-14.3-6.7-16.6-15.3
		l-0.3-17.5C1517.4,1643.4,1511.9,1635.1,1500.2,1632.5L1500.2,1632.5z M1343,1286.6c49.3-4.5,92.9,31.8,97.7,81.2
		c4.5,49-31.8,92.6-81.2,97.4c-49,4.5-92.6-31.8-97-81.1C1257.7,1335,1293.9,1291.4,1343,1286.6L1343,1286.6z M2121.1,878.6l-105,13
		l25.8,59.5L2121.1,878.6L2121.1,878.6z M2170.1,803.2l46.8,103.4l-243.8,218.3l-33.1-90.7l50.9-45.2l-37.9-89.4l-68.4,2.9l-39.1-84
		L2170.1,803.2L2170.1,803.2z M1781.2,459.8l-84.7,125.1c43.3,36,79.6,59.5,124.1-7.6C1864.9,509.8,1831.1,493.8,1781.2,459.8
		L1781.2,459.8z M1744.6,358.9l87.5,55.4c99,62.1,125.1,132.7,63,222.1c-62.4,89.4-131.1,73.5-226.3,8l-82.8-57L1744.6,358.9
		L1744.6,358.9z M1152.3,383.4c-2.2-100.2,69.7-155.6,160.1-151.5c90.4,4.1,170,25.8,172.5,139.1c2.9,112.7-65.6,150.2-164.5,151.8
		C1221.4,524.4,1154.9,483.4,1152.3,383.4z M1255.1,367.2c-6.7,80.5,27.4,98,59.5,98c32.8,0,60.1-17.8,68.1-87.2
		c7-65.6-28.4-93.3-62.1-91.7C1268.8,288.6,1258,333.1,1255.1,367.2L1255.1,367.2z M669.2,413l77.6-47.1l64,107.2l14.6-147.7
		l94.2-37.9l-22.6,149.6l148.3,95.2L952.4,569L820.4,490l67.8,112.7l-79.9,49L669.2,413L669.2,413z M575.7,920.9
		c95.2-65.9,145.1-173.8,69.7-230.7c-87.5-65.6-145.4,61.7-184,56.7c-24.8-3.2,1.9-61.4,54.4-107.2l-36.3-31.2
		C368.5,694,345.9,807.6,429.3,845.2c66.8,30.2,138.1-87.2,154.7-80.8c57.9,22.6-41.4,112.7-55.7,121.3L575.7,920.9z M1532,2112.1
		c-52.2-62.7-33.1-147.3,32.5-181.1c39.5-20.1,99-18.5,129.9,11.8c35.6,35.6,48.7,109.8,5.1,158.5
		C1666.6,2137.9,1568,2155.4,1532,2112.1L1532,2112.1z M1641.2,2081.9c26.7-13.3,22.3-51.9,13-74.8c-15-35.9-42-49-66.5-39.1
		c-27.7,11.1-27.1,50.3-15.3,76.1C1583.9,2069.8,1612.2,2095.6,1641.2,2081.9z M1289.2,2207l-9.5-152.4l-53.2,2.6l-2.6-49.3
		l169.6-7.6l2.9,49l-50,2.5l8.9,152.4L1289.2,2207L1289.2,2207z M935.3,1946.3l68.4,20.7l-30.5,107.6c-5.1,18.1-11.8,45.5,14.3,50.9
		c26.1,5.4,31.8-17.8,37.2-36.9l30.2-107.9l61.1,16.5l-30.9,109.2c-14,57-62.7,74.8-112.3,61.4c-57-14.6-84.3-54.4-68.1-112.3
		L935.3,1946.3L935.3,1946.3z M760.2,1883l-66.8,44.9l36.9,29.3L760.2,1883z M568.7,1935.5l179.8-105.4l76.1,53.2l-76.4,204.6
		l-51.9-46.5l14-41.4l-54.4-43.6l-33.7,24.2L568.7,1935.5L568.7,1935.5z M341.1,707.7l40.4,0.3c8-18.8,18.5-36.6,30.2-50.6
		L400.9,617c-11.5,12.1-22.6,25.1-26.1,36.3l9.2,17.8l-23.5,1.9C351,684.2,346.5,692.1,341.1,707.7z"/>
</g>
</svg>
