<?xml version="1.0" encoding="utf-8"?>
<!-- Generator: Adobe Illustrator 25.4.1, SVG Export Plug-In . SVG Version: 6.00 Build 0)  -->
<svg version="1.1" id="Layer_1" xmlns="http://www.w3.org/2000/svg" xmlns:xlink="http://www.w3.org/1999/xlink" x="0px" y="0px"
	 viewBox="0 0 2500 751.9" style="enable-background:new 0 0 2500 751.9;" xml:space="preserve">
<style type="text/css">
	.st0{fill-rule:evenodd;clip-rule:evenodd;fill:#FFFFFF;}
</style>
<g>
	<path class="st0" d="M1721.2,299.2c21.8,34.6,35.4,74.9,36.6,118.5h0.4v239.9h-77.8v-59.7c-42.7,38.5-98.1,59.7-155.5,59.7
		c-128.4,0-232.9-104.5-232.9-232.9c0-118.1,88.1-216,202-231.3c-1.2,28-2.5,55.5-3.3,83.1c-67.5,15.6-118.1,76.1-118.1,148.1
		c0,83.5,68.3,151.9,152.3,151.9c83.5,0,151.8-68.3,151.8-151.9c0-32.5-9.9-62.5-27.6-87.2C1673.4,324.7,1697.3,311.9,1721.2,299.2z
		"/>
	<path class="st0" d="M1517.5,387.6V82.7l251.4,149.4C1768.9,232.1,1516.2,389.3,1517.5,387.6z M1991.5,273.2h57.2v-81.1h-63
		c-78.6,0.4-144.4,60.5-151.8,137.4v332.9h95.1V329.6c-0.8-34.1,21.4-57.6,56.8-56.4L1991.5,273.2L1991.5,273.2z M2100.5,519.7
		l0.4,0.4c8.2,75.7,74.1,135,151.8,135.4h63.4v-81.1h-63.4c-35,1.2-65.8-22.2-65-56V269.9h105.4v-85.6h-107V96.3h-85.6L2100.5,519.7
		L2100.5,519.7L2100.5,519.7z M887.9,657.6h95.1V330h0.4c0-0.4,0.4-0.8,0.4-1.2v-4.1v-2.9c2.9-31.7,45.3-57.6,79.8-57.6
		c37,0,74.5,30.5,71.2,65h0.4v328.4h95.1V329.2c0-1.6,0.4-3.7,0.4-5.3c0-86.4-75.3-157.2-167.1-157.2c-49,0-93.4,20.2-123.9,51.9
		c-30.5-31.3-74.5-51-123-51c-92.2,0-167.1,70.4-167.1,157.2v5.4h0.4v327.6h95.1v-328h0.4c-0.4-0.4-0.4-0.8-0.4-1.6v-3.3
		c0.4-32.5,36.2-60.1,71.6-60.1c35.4,0,70.8,27.6,71.6,60.1h-0.4L887.9,657.6L887.9,657.6z M183.8,523.8l93.4-9
		c6.6,37.4,79,58,111.1,62.1c26.7,3.7,110.3-17.3,110.3-60.1c0-80.7-137.4-54.3-211.1-77.8c-59.2-18.9-92.2-53.9-92.2-115.2
		c0-95.9,104.5-158.4,186.8-158.4c59.7,0,104.5,12.8,135,39.1c30,26.3,53.5,59.2,54.7,103.3l-95.9,4.1c-5.8-32.5-38.7-56-81.1-56.8
		c-28.8-0.4-68.3,14.4-83.1,25.1c-21,15.2-11.9,74.5,11.5,82.3c75.7,25.1,138.3-5.4,197.9,25.9c48.6,23.5,67.9,85.2,67.9,122.6
		c0,107.4-109,147.3-201.6,147.3C308.5,658.4,194.1,615.6,183.8,523.8L183.8,523.8z"/>
</g>
</svg>
