<svg xmlns="http://www.w3.org/2000/svg" viewBox="0 0 221.47 28.86"><g id="Layer_2" data-name="Layer 2"><g id="Layer_1-2" data-name="Layer 1"><g id="TESLA"><path d="M189.27,11.45V28.86h5.57V17.25h20.35V28.86h5.56V11.45H189.27M194.2,5.8h21.47a7.83,7.83,0,0,0,5.8-5.8H188.4a8.09,8.09,0,0,0,5.8,5.8M172.34,28.86a8.23,8.23,0,0,0,4.93-5.65h-25V.08h-5.64V28.86h25.75M104.85,5.72h19.88c3-.87,5.48-3.18,6.12-5.64H99.37v17h25.75v6H104.93a11.37,11.37,0,0,0-7.23,5.81h33V11.45H104.93l-.08-5.73m-49,.08H77.35A7.71,7.71,0,0,0,83.15,0H50a8.06,8.06,0,0,0,5.88,5.8m0,11.37H77.35a7.73,7.73,0,0,0,5.8-5.8H50a8.08,8.08,0,0,0,5.88,5.8m0,11.69H77.35a7.72,7.72,0,0,0,5.8-5.81H50a8,8,0,0,0,5.88,5.81" style="fill:#fff"/><path d="M0,.08A8,8,0,0,0,5.8,5.8h9.07l.47.16V28.78H21V6l.47-.16h9.07A8.12,8.12,0,0,0,36.33.08V0L0,.08" style="fill:#fff"/></g></g></g></svg>