<?xml version="1.0" encoding="utf-8"?>
<!-- Generator: Adobe Illustrator 25.4.1, SVG Export Plug-In . SVG Version: 6.00 Build 0)  -->
<svg version="1.1" id="Layer_1" xmlns="http://www.w3.org/2000/svg" xmlns:xlink="http://www.w3.org/1999/xlink" x="0px" y="0px"
	 viewBox="0 0 2500 440" style="enable-background:new 0 0 2500 440;" xml:space="preserve">
<style type="text/css">
	.st0{fill:#FFFFFF;}
</style>
<g>
	<path class="st0" d="M295.9,404.7c-33.1-20.7-57.5-92.3-57.5-177.3c0-3.1,0-6.2,0.1-9.3l0,0c-92.1-14.5-158.6-54.1-160.3-101
		l-0.3,0.5c-22.5,28-35.4,60.4-35.4,94.9c0,101.5,111.4,184.6,252.7,192L295.9,404.7z M0,220C0,106.4,141.3,14.4,315.7,14.4
		S631.3,106.4,631.3,220S490,425.6,315.7,425.6S0,333.6,0,220z M315.7,44c33.7,0,62.3,51,72.9,122.3l0-0.1
		c65.5-10.2,111.3-33.7,111.3-61.1c0-36.7-82.5-66.4-184.2-66.4s-184.2,29.7-184.2,66.4c0,27.4,45.8,50.9,111.3,61.1l0,0.1
		C253.4,95.1,282,44,315.7,44z M336,404.6c141.3-7.4,252.7-90.5,252.7-192c0-34.5-12.9-66.9-35.4-94.9l-0.3-0.5
		c-1.7,46.9-68.2,86.5-160.3,101l0,0c0.1,3.1,0.1,6.1,0.1,9.3c0,85-24.4,156.6-57.5,177.3L336,404.6z M315.7,171.6
		c15.1,0,29.7-0.6,43.8-1.9l0,0c-7-45.7-23.9-77.9-43.7-77.9s-36.8,32.2-43.7,77.9l0,0C285.9,171,300.6,171.6,315.7,171.6z
		 M315.7,340.7c25.3,0,46-52.7,47.1-118.9l0.1,0c-31.4,2.9-63.1,2.9-94.5,0l0.1,0C269.7,288,290.3,340.7,315.7,340.7z M1610.7,220
		c0-86.8,70.4-157.2,157.2-157.2c86.8,0,157.2,70.4,157.2,157.2c0,86.8-70.4,157.2-157.2,157.2
		C1681.1,377.2,1610.7,306.8,1610.7,220L1610.7,220z M1767.9,319.5c48.5,0,87.8-44.6,87.8-99.5c0-55-39.3-99.5-87.8-99.5
		c-48.5,0-87.7,44.6-87.7,99.5S1719.4,319.5,1767.9,319.5z M2103.4,128.3V370h-66.2V128.3h0.2h-92.6V73.7h251v54.6L2103.4,128.3
		L2103.4,128.3z M2275.9,303.4L2275.9,303.4l-25.5,66.7H2173l122.3-296.4h82.4L2500,370h-77.3l-25.4-66.6l-0.1-0.1h-60.6H2275.9z
		 M2336.5,253.3h41.7l0,0l-41.4-108.5h-0.6l-41.4,108.5l0,0H2336.5z M882.7,128.3V370h-66.2V128.3h0.2h-92.6V73.7h251v54.6
		L882.7,128.3L882.7,128.3z M992,220c0-86.8,70.4-157.2,157.2-157.2c86.8,0,157.2,70.4,157.2,157.2c0,86.8-70.4,157.2-157.2,157.2
		C1062.4,377.2,992,306.8,992,220L992,220z M1149.2,319.5c48.5,0,87.8-44.6,87.8-99.5c0-55-39.3-99.5-87.8-99.5
		c-48.5,0-87.8,44.6-87.8,99.5S1100.7,319.5,1149.2,319.5z M1458.5,370h33.6V257.5l115.5-183.8h-77.3l-71.8,124.6l-71.8-124.6h-77.3
		l115.5,183.8V370L1458.5,370L1458.5,370z"/>
</g>
</svg>
