<?xml version="1.0" encoding="utf-8"?>
<!-- Generator: Adobe Illustrator 25.4.1, SVG Export Plug-In . SVG Version: 6.00 Build 0)  -->
<svg version="1.1" id="Layer_1" xmlns="http://www.w3.org/2000/svg" xmlns:xlink="http://www.w3.org/1999/xlink" x="0px" y="0px"
	 viewBox="0 0 2500 2500" style="enable-background:new 0 0 2500 2500;" xml:space="preserve">
<style type="text/css">
	.st0{fill-rule:evenodd;clip-rule:evenodd;fill:#FFFFFF;}
	.st1{fill-rule:evenodd;clip-rule:evenodd;}
</style>
<g>
	<path class="st0" d="M1250.5,0.1C1938.7,0.1,2500,561.3,2500,1250.5c0,687.2-561.3,1249.4-1249.5,1249.4
		C562.2,2500,0,1937.7,0,1250.5C0,561.3,562.3,0,1250.5,0.1"/>
	<path class="st1" d="M1250.5,158.8c600.2,0,1090.8,490.6,1090.8,1091.8c0,600.2-490.6,1089.7-1090.8,1089.7
		c-600.1,0-1090.7-489.6-1090.7-1089.7C159.8,649.3,650.4,158.8,1250.5,158.8L1250.5,158.8z M520.3,663.7l391.3,1015l143.3-370.7
		h375.9l143.3,370.7l395.3-1027.2c-69.7-84.2-153.6-155.6-247.9-211l-274.4,755.8H1060L784.5,437.3
		C683.1,495.7,594,572.5,520.3,663.7L520.3,663.7z M2127.2,918.7l-445.5,1162.4c299.1-156.7,504.9-470.1,504.9-830.6
		C2186.6,1133.8,2166.1,1022.1,2127.2,918.7z M1487.1,2156.9l-3-23.5l-241.7-626.8l-241.8,626.8l-1,19.5
		c79.8,22.6,163.8,33.7,250.9,33.7C1330.3,2186.7,1409.8,2176.7,1487.1,2156.9z M800.9,2070.9L366.6,939.2
		c-34.8,97.3-53.3,201.8-53.3,311.4C313.4,1602.9,510,1912.1,800.9,2070.9L800.9,2070.9z M1250.5,313.4c82,0,162.9,10.2,239.7,30.7
		l-236.6,654.4L1016,343.1C1092.6,323.3,1171.4,313.3,1250.5,313.4"/>
</g>
</svg>
